<svg version="1.2" xmlns="http://www.w3.org/2000/svg" viewBox="0 0 554 746" width="554" height="746">
	<title>Basic_Elements_(18)-ai</title>
	<style>
		.s0 { fill: #ffffff } 
	</style>
	<g id="Layer 1">
		<g id="&lt;Group&gt;">
			<path id="&lt;Compound Path&gt;" fill-rule="evenodd" class="s0" d="m211.1 730.6v-112c0-6.4 5.2-11.6 11.5-11.6h112.1c6.3 0 11.5 5.2 11.5 11.6v112c0 6.4-5.2 11.5-11.5 11.5h-112.1c-6.3 0-11.5-5.1-11.5-11.5zm23.1-100.5v89h89v-89z"/>
			<path id="&lt;Compound Path&gt;" fill-rule="evenodd" class="s0" d="m336.2 581.8h-128.1c-6.3 0-11.5-5.1-11.5-11.5q0-0.4 0-0.8-0.2-13-0.3-21.3-0.2-11.4-0.2-11.6 0-32.1 5.4-59 5.5-27.1 16.5-48.6h-0.1q0.1-0.2 0.2-0.4c7.4-14.2 18.2-29.2 32.5-44.9 14.1-15.4 31.7-31.7 52.8-48.9q30.3-24.6 48.9-41.2 17.6-15.7 22.8-22.6 0.4-0.5 0.8-1 7.6-10.1 11.5-21.5 4.1-11.8 4.1-24.7c0-24-9.7-44.7-29-62.1h-0.1q-0.2-0.1-0.3-0.3-14.6-12.8-34.2-19.3-20.4-6.8-46.4-6.8-25 0.1-45.6 7.1-20.5 7-37 20.9-16.3 13.9-27.7 35.3-11.6 21.8-18.1 51.8l-11.3-2.5 11.3 2.5c-1.3 6-7.1 9.8-13.1 8.9l-129-16.1 1.4-11.4-1.4 11.4c-6.3-0.7-10.8-6.5-10-12.8v-0.1q2.9-46.8 22.9-86.8 20.2-40.2 57.3-73l7.6 8.6-7.6-8.6q0.2-0.2 0.4-0.4c24.8-21.7 53.4-38 85.8-48.9 32.3-10.9 68.3-16.4 108.1-16.4q62.4 0 112.5 16.5 50.6 16.7 88.4 50.1 37.7 33.2 56.6 72.2 19.2 39.4 19.2 84.3 0 24.8-7.1 48.5-7.1 23.6-21.1 45.9l-9.7-6.2 9.7 6.2q-0.1 0.2-0.3 0.4-13.9 21.8-42.9 50.9-28.4 28.6-72 64.8-21.7 18.1-35.2 32.6-12.6 13.6-17.3 23.4-4.6 9.6-6.8 27.9-2.4 19.7-1.9 47.8h0.1c0.1 6.4-5 11.6-11.3 11.7zm-116.8-23h105.2q0.1-22.6 2.1-39.2 2.6-22.1 8.8-35.1 6.2-12.9 21.3-29.2 14.3-15.3 37.3-34.5 42.6-35.3 70.4-63.4 27.1-27.3 39.8-47.1 0.1-0.1 0.2-0.3h0.1q12.2-19.5 18.4-40.2 6.1-20.4 6.1-41.9 0-39.7-16.8-74.3-16.9-34.9-51.1-65.1-34.2-30.1-80.3-45.3-46.5-15.3-105.4-15.3-56.1 0-100.8 15-44.1 14.9-77.9 44.5-0.2 0.2-0.3 0.3h-0.1q-33.8 29.9-51.9 66.1-15.8 31.4-19.7 67.9l108.2 13.5q6.8-26.5 17.9-47.4 13.5-25.4 33.2-42.1 19.8-16.7 44.4-25.1 24.3-8.3 53-8.3 29.7 0 53.6 7.9 24.1 8 42.2 24 0.3 0.2 0.5 0.4l-7.7 8.5 7.7-8.5c24.5 22 36.7 48.3 36.7 79.2q0 16.7-5.3 32.1-5 14.6-15 28-0.3 0.5-0.7 0.9-6.6 8.8-25.9 26-18.3 16.3-49.7 41.8c-20.1 16.4-36.9 31.9-50.3 46.6-12.9 14.2-22.6 27.5-29 39.9q-0.1 0.2-0.2 0.4-9.6 18.6-14.4 42.6-4.9 24.3-4.9 54.5c0 3.9 0.1 7.6 0.1 11.3q0.1 4.5 0.2 10.9z"/>
		</g>
	</g>
</svg>